<svg width="720" height="460" viewBox="0 0 720 460" xmlns="http://www.w3.org/2000/svg" font-family="'Inter','Segoe UI','Arial',sans-serif">
  <defs>
    <linearGradient id="bg" x1="0" y1="0" x2="1" y2="1">
      <stop offset="0%" stop-color="#0f0505"/>
      <stop offset="100%" stop-color="#1a0808"/>
    </linearGradient>
    <linearGradient id="barSafe" x1="0" y1="0" x2="1" y2="0">
      <stop offset="0%" stop-color="#ef4444"/>
      <stop offset="40%" stop-color="#f97316"/>
      <stop offset="70%" stop-color="#eab308"/>
      <stop offset="100%" stop-color="#22c55e"/>
    </linearGradient>
    <filter id="redglow">
      <feGaussianBlur stdDeviation="4" result="blur"/>
      <feMerge><feMergeNode in="blur"/><feMergeNode in="SourceGraphic"/></feMerge>
    </filter>
  </defs>

  <rect width="720" height="460" fill="url(#bg)"/>

  <!-- header -->
  <text x="360" y="36" fill="#7f1d1d" font-size="11" font-weight="600" text-anchor="middle" letter-spacing="4">REAPER</text>
  <text x="360" y="58" fill="#fca5a5" font-size="20" font-weight="700" text-anchor="middle">Liquidation Risk Monitor</text>
  <text x="360" y="78" fill="#7f1d1d" font-size="12" text-anchor="middle">3 protocols · 12 at-risk positions · scanning every 30s</text>

  <!-- ── position row 1: CRITICAL ── -->
  <rect x="24" y="100" width="672" height="72" rx="8" fill="#1f0606" stroke="#7f1d1d" stroke-width="1.5"/>
  <rect x="24" y="100" width="6" height="72" rx="3" fill="#ef4444" filter="url(#redglow)"/>
  <!-- badge -->
  <rect x="44" y="112" width="72" height="22" rx="11" fill="#7f1d1d"/>
  <text x="80" y="127" fill="#fca5a5" font-size="11" font-weight="700" text-anchor="middle">☠ CRITICAL</text>
  <!-- protocol + tokens -->
  <text x="132" y="120" fill="#f87171" font-size="13" font-weight="700">Kamino · SOL / USDC</text>
  <text x="132" y="138" fill="#7f1d1d" font-size="11">7BxK…3mQP · $142,800 collateral · $136,000 borrowed</text>
  <!-- health bar -->
  <text x="44" y="160" fill="#7f1d1d" font-size="10">HEALTH FACTOR</text>
  <rect x="148" y="150" width="320" height="12" rx="6" fill="#3b0f0f"/>
  <rect x="148" y="150" width="29" height="12" rx="6" fill="#ef4444" filter="url(#redglow)"/>
  <text x="482" y="161" fill="#ef4444" font-size="13" font-weight="700">1.021</text>
  <text x="540" y="161" fill="#7f1d1d" font-size="11">→ add collateral NOW</text>

  <!-- ── position row 2: DANGER ── -->
  <rect x="24" y="184" width="672" height="72" rx="8" fill="#1a0d04" stroke="#c2410c" stroke-width="1"/>
  <rect x="24" y="184" width="6" height="72" rx="3" fill="#f97316"/>
  <rect x="44" y="196" width="68" height="22" rx="11" fill="#7c2d12"/>
  <text x="78" y="211" fill="#fdba74" font-size="11" font-weight="700" text-anchor="middle">⚠ DANGER</text>
  <text x="128" y="204" fill="#fb923c" font-size="13" font-weight="700">MarginFi · ETH / USDC</text>
  <text x="128" y="222" fill="#6b3515" font-size="11">4Pmt…9vWz · $89,200 collateral · $80,300 borrowed</text>
  <text x="44" y="244" fill="#6b3515" font-size="10">HEALTH FACTOR</text>
  <rect x="148" y="234" width="320" height="12" rx="6" fill="#3b1a08"/>
  <rect x="148" y="234" width="54" height="12" rx="6" fill="#f97316"/>
  <text x="482" y="245" fill="#f97316" font-size="13" font-weight="700">1.083</text>
  <text x="540" y="245" fill="#6b3515" font-size="11">→ reduce borrow by 20%</text>

  <!-- ── position row 3: DANGER ── -->
  <rect x="24" y="268" width="672" height="72" rx="8" fill="#1a0d04" stroke="#c2410c" stroke-width="1"/>
  <rect x="24" y="268" width="6" height="72" rx="3" fill="#f97316"/>
  <rect x="44" y="280" width="68" height="22" rx="11" fill="#7c2d12"/>
  <text x="78" y="295" fill="#fdba74" font-size="11" font-weight="700" text-anchor="middle">⚠ DANGER</text>
  <text x="128" y="288" fill="#fb923c" font-size="13" font-weight="700">Kamino · JTO / USDC</text>
  <text x="128" y="306" fill="#6b3515" font-size="11">9XnR…2cQK · $22,600 collateral · $19,700 borrowed</text>
  <text x="44" y="328" fill="#6b3515" font-size="10">HEALTH FACTOR</text>
  <rect x="148" y="318" width="320" height="12" rx="6" fill="#3b1a08"/>
  <rect x="148" y="318" width="72" height="12" rx="6" fill="#f97316"/>
  <text x="482" y="329" fill="#f97316" font-size="13" font-weight="700">1.109</text>
  <text x="540" y="329" fill="#6b3515" font-size="11">→ add $4K collateral</text>

  <!-- ── position row 4: WATCH ── -->
  <rect x="24" y="352" width="672" height="60" rx="8" fill="#141404" stroke="#713f12" stroke-width="1"/>
  <rect x="24" y="352" width="6" height="60" rx="3" fill="#eab308"/>
  <rect x="44" y="363" width="58" height="20" rx="10" fill="#422006"/>
  <text x="73" y="377" fill="#fde047" font-size="11" font-weight="600" text-anchor="middle">WATCH</text>
  <text x="118" y="371" fill="#d97706" font-size="13" font-weight="700">Drift · SOL / USDT</text>
  <text x="118" y="387" fill="#5c3d0a" font-size="11">2VwX…8nKL · $31,400 collateral</text>
  <text x="44" y="404" fill="#5c3d0a" font-size="10">HEALTH FACTOR</text>
  <rect x="148" y="394" width="320" height="10" rx="5" fill="#2d1c06"/>
  <rect x="148" y="394" width="138" height="10" rx="5" fill="#eab308"/>
  <text x="482" y="404" fill="#eab308" font-size="13" font-weight="700">1.243</text>

  <!-- bottom bar -->
  <rect x="0" y="424" width="720" height="36" fill="#0a0303"/>
  <rect x="0" y="424" width="720" height="1" fill="#3b0f0f"/>
  <text x="360" y="447" fill="#3b0f0f" font-size="10" text-anchor="middle">reaper · kamino · marginfi · drift · claude agent sdk · scanning every 30s</text>
</svg>
